<?xml version="1.0" encoding="UTF-8"?>
<!DOCTYPE svg PUBLIC "-//W3C//DTD SVG 1.1//EN" "http://www.w3.org/Graphics/SVG/1.1/DTD/svg11.dtd">
<!-- Creator: CorelDRAW 2020 (64-Bit) -->
<svg xmlns="http://www.w3.org/2000/svg" xml:space="preserve" width="55.5733mm" height="68.0332mm" version="1.1" style="shape-rendering:geometricPrecision; text-rendering:geometricPrecision; image-rendering:optimizeQuality; fill-rule:evenodd; clip-rule:evenodd"
viewBox="0 0 5589.36 6842.54"
 xmlns:xlink="http://www.w3.org/1999/xlink"
 xmlns:xodm="http://www.corel.com/coreldraw/odm/2003">
 <defs>
  <style type="text/css">
   <![CDATA[
    .str0 {stroke:#FEFEFE;stroke-width:75.43;stroke-miterlimit:22.9256}
    .fil0 {fill:none}
   ]]>
  </style>
 </defs>
 <g id="Capa_x0020_1">
  <metadata id="CorelCorpID_0Corel-Layer"/>
  <path class="fil0 str0" d="M1157.75 128.98l-1.84 40.32 -3.57 148.94c4.37,3.88 11.35,8.25 14.05,10.45l27.23 22c3.53,3.16 9.41,8.26 13,11.64 18.85,17.91 29.21,29.84 47.06,52.03 23.88,29.66 45.28,53.06 63.6,99.85 -90.24,-9.52 -118.21,-43.23 -158.09,-84.47 -25.57,168.45 37.95,233.03 131.93,296.66 159.47,108.01 122.44,38.3 198.23,229.36 17.75,44.78 64.37,121.59 73.72,155.35l21.25 447.22c-56.05,81.51 -145.22,149.5 -155.64,293.41 17.17,3.42 53.87,-25.08 94.75,0 -142.47,169.93 -54.84,88.96 -68.23,286.71 -8.15,120.1 -35.69,223.66 -19.9,318.26 44.36,17.99 85.49,23.01 118.66,34.86 37.49,13.39 -4.61,-7.3 38.53,18.86 1.05,0.65 29.01,24.67 35.6,29.13 22.3,166.48 17.43,439.89 -128.3,493.83 -80.11,29.67 -168.83,2.49 -252.62,4.61 -87.62,2.23 -138.94,43.94 -225.93,73.93 -8.81,15.92 0.8,16.64 -42.07,34.77 -48.75,20.58 -202.09,54.02 -194.15,-49.14l79.99 -276.88c22.74,-174.03 -28.99,-177.74 -13.03,-305.89 -49.38,-44.38 -29.02,54.34 -43.21,-50.71l-1.45 16.27c22.56,99 2.07,172.72 -29.66,257.82 -37.69,100.95 -47.01,137.83 -133.62,183.67 -81.54,-28.62 -129.46,-58.5 -125.84,-138.09 -46.38,-44.06 -39.64,3.74 -65.4,-110.85 -21.74,-96.61 13.6,-227.83 16.69,-276.48 11.01,-174.36 4.96,-82.85 -39.85,-130.33l-97.95 353.9c-34.54,-86.85 -50.69,-160.42 -39.25,-263.19 25.92,-233.05 132.69,-164.49 24.91,-198.46 -6.89,64.51 -53.57,89.63 -81.66,168.08 -22.66,63.21 -19.86,167.41 -51.9,223.14l-33.94 -116.16 -107.78 0.03 17.96 164.46 68.23 95.61c17.66,34.18 27.82,65.2 45.66,105.52 28.74,64.96 76.82,133.76 82.94,204.04 41.92,30.43 20.4,-30.73 56.09,80.35 72.66,43.21 111.14,139.85 155.4,212.27 91.24,4.91 109.37,54.93 173.62,116.19 263.31,251.14 454.97,124.32 613.74,221.42 15.17,9.26 -23.01,13.16 53.36,34.68l114.16 -78.3c74.88,-83.79 197.83,-72.93 280.48,-146.83l281.03 -242.11 123.14 -48.84c125.77,332.31 47.91,419.54 -413.43,631.08 -275.25,126.21 102.64,22.3 -129.96,149.05 -58.86,48.58 -117.05,112.29 -185.28,162.12l-405.62 427.21c-26.24,30.82 -2.49,8.25 -32.72,37.46 -39.32,37.98 -1.34,10.72 -35.79,24.77 -29.19,101.04 -65.2,132.21 -106.41,236.25 -23.19,58.59 -47.99,194.85 -73.02,235.01 -13.66,191.76 -16,112.61 53.87,232.64 26.3,45.2 59.85,139.76 80.64,195.41 86.44,-31.3 -30.65,-17.32 87.76,-59.77l232.23 163.06c7,-6.44 14.66,-14.75 19.44,-20.91l47.8 -84.86c135.81,7.04 182.33,18.23 277.65,92.02 19.83,237.1 -19.27,260.81 -146.18,366.44 7.81,38.12 17.52,39.58 19.27,44.32l-9.26 66.89 -4.6 196.39c8.79,102.56 -33.61,200.42 -103.27,288.88 -85.48,108.46 -240.89,121.26 -373.17,158.71l-108.11 44.65 722.73 28.62c110.25,-7.13 100.72,-55.35 202.44,-63.87l-2.64 -165.03 105.79 -6.33c-9.8,-131.33 -54.81,-149.35 20.58,-255l23.58 -28.05c49.05,-77.95 22.24,-97.92 45.46,-175.81l34.86 -87.33 74.18 -104.48 75.29 45.45 20.13 -77.91 63.19 -171.95 63.54 73.95c28.5,-336.67 59.38,-194.69 157.16,-305.61 50,-56.75 16.63,-47.1 48.07,-115.8 102.24,68.5 -5.14,63.54 107.3,113.99l-16.78 -22.21c-21.97,-187.99 -62.94,-220.49 -220.31,-294.47 -129.84,-60.98 -248.79,-44.65 -236.08,-233.35 76.85,-77.34 124.7,-95.25 243.98,-88.25 60.87,-56.29 148.82,-103.65 238.07,-105.85 108.82,322.99 -12.38,149.08 205.15,531.13 88.13,-7.78 -2.91,-5.7 49.43,-14.49 32.49,-5.43 45.58,-6.65 90.27,-3.89l107.72 189.86c2.08,3.8 6,11.07 7.81,14.39l14.43 27.62c101.69,-11.5 75.3,-71.94 192.61,21.38 235.93,187.74 120.63,86.67 422.57,84.98 145.05,-0.8 134.53,-15.65 251.87,-43.09 53.81,49.89 86.11,96.32 100.12,157.34 13.34,19.27 32.58,44.15 58.34,74.79l23.04 26.25c29.87,36.52 13,4.33 29.63,39.73 65.24,29.16 41.72,85.04 33.14,165.01l132.19 -23.4 15.09 76.58 36.79 181.48c10.03,56.44 16.15,115.38 7.48,170.87 -50.91,327.21 -20.12,294.79 -357.59,314.22 75.17,101.6 462.5,25.6 622.69,83.88 69.72,25.39 143.76,35.78 237.45,28.38 -16.84,-58.1 16.41,-6.57 -28.65,-65.8 -60.9,-79.99 -24.41,-25.48 -36.67,-17.19l279.07 -65.03 -111.31 -86.1 -35.31 -15.5 -78.56 -54.63c-491.43,136.44 -12.47,64.06 -60.77,-355.46 -1.59,-1.28 -9.97,0.14 -28.49,-28.65 -16.51,-25.68 -8.91,-20.43 -21.35,-46.91 -57.46,-122.42 55.68,-34.57 -70.57,-102.59 6.85,-47.3 9.02,-30.14 -15.63,-76.58 -76.72,-60.63 -30.1,-15.88 -30.31,-69.3 -0.26,-61.46 17.61,45.16 3.8,-39.5 -1.71,-10.63 -20.31,-49.43 -27.64,-60.72l-41.27 -95.79c-56.6,-167.31 1.66,-155.17 -35.58,-325.09 -33.19,-151.35 0.99,-136.64 1.91,-142.08 9.11,-53.85 -0.74,-70.51 -30.43,-127.82 -131.06,-253 -178.63,-246.7 -343.72,-252.02l-123.19 -10.86c-7.1,-1.72 -15.59,-5.94 -21.18,-7.6l-39.6 -20.08c-176.17,27.53 -313.7,-141.1 -309.88,-299.63 -74.59,-116.45 -7.68,-375.68 -35.65,-524.53 7.56,-99.89 -27.62,-42.2 26.09,-88.2 215.72,135.64 167.03,343.31 326.82,462.19l25.12 -131.17c83.2,48.63 128.72,108.13 173.52,173.79l128.14 78.97 31.3 -63.99c48.96,-67.03 -38.92,-5.85 44.12,-39.49 107.4,74.35 100.48,72.63 115.47,127.79 61.81,25.17 58.34,33.58 107.49,10.37 44.96,263.45 -27.5,153.53 149.44,324.8l33.46 -75.01c18.08,-50.5 -28.29,7.91 21.53,-72.84 78.15,33.47 104.66,116.55 121.13,250.19l45.9 316.66c31.95,19.94 33.44,-3.33 59.21,39.31 4.24,-5.49 7.72,-13.98 10.28,-18.16 60.84,-99.77 10.89,-54.01 78.68,-95.7l-10.66 155.37c3.1,87.15 -14.99,237.81 28.68,284.51 86.31,20.88 62.5,0.53 154.04,-19.74 -4.55,-128.72 -38.15,-158.32 -11.22,-287.16l66.45 -15.61c33.29,54.71 -1.25,37.08 85.95,62.88 26.64,-41.92 20.5,5.7 18.15,-92.63l-16.51 -180.89c102.65,-50.74 73.28,67.55 122.57,-51.33l-78.62 -76.02c-78.28,-93.74 -69.02,-125.51 -33.12,-184.89 98.59,-163.01 -32.89,-151.49 -57.3,-366.4l84.83 73.3 9.02 -73.3c-37.43,-44.93 -25.8,-61.11 -80.37,-118.39 -57.01,-59.82 -56.11,-41.66 -108.43,-117.94 -64.67,-94.33 -109.3,-117.08 -300.39,-157.72 43.7,-95.67 46.91,-93.56 23.03,-149.05 -76.63,-12.7 -140.08,-49.92 -241.39,-82.71 -106.24,-34.42 -202.73,-17.7 -258.47,-84.33 -171.35,46.65 -384.03,-44.11 -542.74,-76.63 -235.81,-58.28 -371.04,-171.09 -451.58,-331.52l-159.09 -77.88c-206.34,-158.12 -171.86,-220.41 -180.14,-249.15 -22.81,-78.95 -49.53,-89.1 -88.2,-163.61l-48.04 -2.13c-63.15,-296.24 -23.91,-115.03 10.19,-164.98 3.17,-4.69 43.44,-12.61 -33.96,-108.43 -170.15,-210.61 21.75,-304.68 47.94,-327.08 36.19,-30.97 46.47,-50.86 75.45,-75.45 75.5,-64.05 0.26,-16.29 117.88,-56.67 123.93,-42.52 202.06,-43.83 327.05,38.65 54.22,35.79 152.74,66.57 191.01,94.77 108.76,7.72 126.13,1.84 224.35,41.9l45.67 19.18 45.87 37.98c102.82,92.97 27.2,72.24 87.97,137.33 22.86,24.47 15.79,-26.4 42.31,45.66 -113.3,38.66 -235.84,13 -345.02,53.78 -118.21,44.18 -174.18,100.75 -270.71,142.94 -12.08,50.8 12.24,-10.13 -23.27,61.55 -23.64,47.68 -21.26,37.47 -49.28,83.14 127.14,-58.91 -11.76,-63.75 196.62,-112.44 104.1,-24.32 199.23,-48.52 295.88,7.99 191.55,205.03 -165.47,474.78 -340.8,429.2 116.28,122.98 292.35,-1.63 429.73,-21.23 -46.59,137.3 -177.05,185.25 -317.94,189.19l43.56 24.77c196.36,4.51 247.34,-19.83 374.95,-107.04l-21.17 108.99c-6.47,4.07 -16.15,2.35 -19.59,11.91l-143.5 98.28 156.69 -30.25c44.47,-20.44 36.16,-22.3 57.01,-38.22l5.49 9.14c89.49,-161.85 130.82,-118.79 164.61,-357.76 19.71,-139.31 -18.56,-335.78 71.97,-435.88l-13.63 -100.45c31.62,-54.27 36.76,3.65 7.19,-83.67 -3.83,-11.22 -41.93,-73.02 -55.89,-97.69 -48.9,-86.41 -51.6,-130.64 -121.32,-182.28 -17.52,-81.89 -5.53,-42.6 -59.77,-114.24 -31.56,-41.72 -40.79,-21.86 -46.74,-90.71 -3.91,-45.58 16.57,-31.07 -31.8,-76.34 -53.27,-49.92 -34.53,-11.08 -93.14,-84.09 -149.35,-46.97 80.11,-71.53 -163.19,-112.8 -105.92,-17.96 -124.55,-15.92 -216.6,-46.27 -470.89,-109.5 -199.92,-23.99 -530.77,-186.08 -84.33,-41.34 -136.35,-15.77 -159.45,-78.18 -36.7,-99.24 35.45,18.31 11.58,-46.27 -113.62,-5.64 -183.96,-6.98 -250.72,-62.56 -102.67,-85.48 -51.93,-68.26 -38.74,-132.19 -336.86,-152.77 -54.04,-283.05 -16.56,-391.46 -268.4,-56.35 -200.04,72.51 -400.01,-123.31 -510.02,-499.42 -296.98,-12.5 -668.29,-286.94 -96.07,-71.03 -224.91,-123.26 -315.12,-191.94l-102.12 -4.39c-15.08,25.89 -51.66,80.99 -57.8,90.32z"/>
 </g>
</svg>
